<svg aria-hidden="true" style="position: absolute; width: 0; height: 0; overflow: hidden;" version="1.1" xmlns="http://www.w3.org/2000/svg" xmlns:xlink="http://www.w3.org/1999/xlink">
<defs>
<symbol id="icon-behance_logo" viewBox="0 0 20 32">
<path d="M13.929 15.516c-2.464 0-4.285 1.172-4.968 3.593-0.841-1.767-2.116-2.688-4.099-2.688-3.909 0-4.863 2.923-4.863 6.295v9.284h19.628v-9.544c0-3.579-1.711-6.94-5.699-6.94zM3.351 27.672v-4.061c0-1.561 0.437-2.967 2.243-2.967 1.667 0 2.337 1.093 2.337 2.64v4.388h-4.58zM16.295 27.673h-5.405v-4.717c0-1.905 0.792-3.111 2.803-3.111 1.983 0 2.603 1.439 2.603 3.2v4.628z"></path>
<path d="M20 6.939c0-3.405-1.529-5.611-4.78-6.672v3.456c1.213 0.372 1.855 1.905 1.855 3.095 0 2.295-1.34 3.5-3.617 3.5v-10.284c-0.231-0.017-0.48-0.033-0.729-0.033-4.204 0-7.709 2.467-7.709 6.939 0 4.345 3.256 7.295 7.521 7.295 4.424 0.001 7.46-2.793 7.46-7.295zM7.965 7.061c0-1.967 1.152-2.956 3.036-3.121v6.372c-1.868-0.129-3.036-1.373-3.036-3.251z"></path>
<path d="M1.031 11.111v-7.984h1.933v7.984h-1.933z"></path>
</symbol>
</defs>
</svg>
